<svg width="512" height="512" viewBox="0 0 512 512" fill="none" xmlns="http://www.w3.org/2000/svg">
<circle cx="256" cy="253" r="228" fill="white"/>
<circle cx="256.6" cy="253.6" r="166.2" fill="#030227"/>
<path d="M71.0577 161.356C70.0815 162.261 69.142 163.298 68.2395 164.468C67.337 165.638 66.6558 166.854 66.1962 168.117C65.5614 169.861 65.4584 171.407 65.8872 172.755C66.327 174.073 67.2235 174.978 68.5766 175.471C69.599 175.843 70.5914 175.83 71.5539 175.431C72.4863 175.021 73.4051 174.368 74.3103 173.471C75.2155 172.575 76.1071 171.622 76.9849 170.614C77.748 169.734 78.5506 168.885 79.3929 168.068C80.2352 167.251 81.1595 166.583 82.1657 166.063C83.1829 165.514 84.2998 165.206 85.5165 165.138C86.744 165.039 88.1396 165.275 89.7033 165.844C91.4173 166.468 92.8222 167.473 93.9181 168.86C95.025 170.216 95.6943 171.839 95.9262 173.728C96.158 175.617 95.8744 177.659 95.0755 179.854C94.5501 181.298 93.8813 182.621 93.0689 183.824C92.2676 184.996 91.4088 186.046 90.4926 186.972C89.5464 187.888 88.629 188.678 87.7402 189.342L85.0182 186.155C85.792 185.619 86.5892 184.973 87.4096 184.216C88.1999 183.448 88.9315 182.607 89.6043 181.694C90.2471 180.77 90.7435 179.827 91.0938 178.865C91.4659 177.843 91.6521 176.77 91.6524 175.646C91.6336 174.481 91.3537 173.426 90.8127 172.48C90.2716 171.534 89.3546 170.825 88.0616 170.355C86.949 169.95 85.9224 169.917 84.9818 170.255C84.0221 170.553 83.1116 171.09 82.2502 171.866C81.3587 172.631 80.5054 173.479 79.6904 174.408C78.9274 175.288 78.1288 176.172 77.2947 177.061C76.4305 177.938 75.5035 178.707 74.5136 179.369C73.4937 180.019 72.389 180.434 71.1997 180.614C70.0104 180.794 68.7091 180.627 67.2958 180.113C65.5818 179.489 64.2411 178.541 63.2736 177.27C62.287 175.957 61.6956 174.448 61.4993 172.742C61.2728 171.025 61.4689 169.223 62.0873 167.337C62.8534 165.232 63.7821 163.476 64.8734 162.068C65.9756 160.63 67.1269 159.432 68.3274 158.473L71.0577 161.356Z" fill="black"/>
<path d="M93.0616 118.237C94.5116 116.166 96.1044 114.645 97.84 113.672C99.5494 112.682 101.335 112.252 103.196 112.383C105.076 112.488 106.946 113.193 108.807 114.496C109.934 115.285 110.929 116.235 111.791 117.347C112.627 118.44 113.225 119.679 113.584 121.063C113.935 122.403 113.951 123.859 113.631 125.432C113.311 127.005 112.545 128.657 111.333 130.387L108.388 134.594L118.846 141.917L116.176 145.731L87.748 125.826L93.0616 118.237ZM107.649 127.865C108.438 126.738 108.906 125.679 109.053 124.688C109.2 123.697 109.145 122.8 108.889 121.995C108.606 121.171 108.214 120.448 107.713 119.824C107.213 119.2 106.713 118.714 106.215 118.365C105.639 117.961 104.984 117.64 104.253 117.401C103.496 117.144 102.712 117.064 101.902 117.161C101.084 117.213 100.27 117.483 99.4595 117.971C98.6416 118.414 97.8746 119.146 97.1588 120.168L94.0753 124.572L104.731 132.033L107.649 127.865Z" fill="black"/>
<path d="M144.355 114.116L135.382 75.9592L135.615 75.7899L169.092 96.1437L164.781 99.2754L138.66 82.5953L140.07 78.9011L148.044 111.436L144.355 114.116ZM143.809 98.2561L154.255 90.6666L157.867 93.0257L145.091 102.308L143.809 98.2561Z" fill="black"/>
<path d="M216.613 75.1679C216.184 75.7111 215.572 76.3643 214.777 77.1273C213.981 77.8904 212.994 78.6317 211.815 79.3514C210.666 80.0612 209.346 80.6583 207.855 81.1428C205.288 81.9431 202.827 82.2381 200.471 82.0279C198.145 81.8079 196.02 81.1694 194.095 80.1124C192.17 79.0555 190.49 77.6665 189.056 75.9454C187.643 74.184 186.57 72.1772 185.839 69.9251C185.038 67.46 184.697 65.0641 184.815 62.7375C184.955 60.3706 185.508 58.189 186.474 56.1926C187.431 54.1659 188.76 52.405 190.461 50.9101C192.193 49.4053 194.245 48.2673 196.619 47.496C198.597 46.8532 200.482 46.5437 202.273 46.5674C204.054 46.5607 205.642 46.7347 207.035 47.0893L206.59 51.7763C205.479 51.4643 204.18 51.247 202.694 51.1244C201.238 50.9919 199.718 51.1828 198.136 51.697C196.523 52.2211 195.105 53.0351 193.882 54.1389C192.659 55.2428 191.688 56.551 190.968 58.0634C190.248 59.5759 189.821 61.212 189.686 62.9718C189.572 64.6913 189.802 66.4336 190.375 68.1988C190.959 69.9944 191.776 71.5792 192.828 72.9534C193.901 74.2872 195.138 75.349 196.538 76.1388C197.969 76.9188 199.534 77.386 201.233 77.5406C202.932 77.6952 204.71 77.4709 206.566 76.8677C208.24 76.3238 209.647 75.5806 210.788 74.638C211.929 73.6954 212.821 72.7661 213.466 71.8501L216.613 75.1679Z" fill="black"/>
<path d="M245.936 41.096H268.496V45.56H250.592V56.12H266.576V60.584H250.592V71.336H269.168V75.8H245.936V41.096Z" fill="black"/>
<path d="M328.54 54.8431L347.89 61.886L346.363 66.0808L331.388 60.6303L327.596 71.0497L340.722 75.827L339.211 79.9767L326.086 75.1993L321.046 89.0467L316.67 87.4542L328.54 54.8431Z" fill="black"/>
<path d="M380.688 81.9468C382.13 82.9563 383.316 84.0798 384.247 85.3173C385.222 86.547 385.889 87.8539 386.248 89.2381C386.651 90.6145 386.716 92.0275 386.444 93.4772C386.215 94.919 385.596 96.3608 384.587 97.8025C383.798 98.9296 382.856 99.9113 381.763 100.747C380.696 101.602 379.47 102.209 378.086 102.568C376.72 102.9 375.229 102.911 373.611 102.598C372.038 102.278 370.361 101.494 368.578 100.246L364.371 97.3003L357.048 107.759L353.234 105.089L373.139 76.6608L380.688 81.9468ZM371.06 96.5344C372.187 97.3236 373.237 97.8048 374.209 97.978C375.208 98.1695 376.101 98.15 376.887 97.9194C377.692 97.6626 378.407 97.2839 379.031 96.7832C379.655 96.2826 380.159 95.7571 380.545 95.2066C380.949 94.6299 381.257 93.9667 381.469 93.217C381.726 92.4594 381.815 91.6624 381.737 90.8261C381.685 90.0082 381.424 89.1811 380.955 88.3447C380.512 87.5268 379.792 86.769 378.796 86.0716L374.392 82.988L366.931 93.6436L371.06 96.5344ZM374.225 101.973L373.286 119.13L368.883 116.046L369.62 98.925L374.225 101.973Z" fill="black"/>
<path d="M399.984 119.18C401.823 117.637 403.839 116.53 406.032 115.859C408.271 115.192 410.54 114.959 412.84 115.16C415.163 115.341 417.359 115.942 419.428 116.963C421.541 117.988 423.39 119.445 424.974 121.332C426.537 123.195 427.63 125.244 428.252 127.479C428.919 129.718 429.14 131.998 428.915 134.317C428.734 136.641 428.121 138.847 427.075 140.936C426.053 143.005 424.623 144.81 422.785 146.353C420.897 147.937 418.834 149.063 416.595 149.73C414.356 150.397 412.077 150.618 409.757 150.392C407.483 150.17 405.301 149.537 403.212 148.491C401.168 147.449 399.364 145.996 397.801 144.133C396.217 142.246 395.079 140.193 394.387 137.974C393.716 135.781 393.469 133.544 393.646 131.266C393.822 128.987 394.434 126.803 395.479 124.714C396.546 122.65 398.047 120.805 399.984 119.18ZM403.033 122.888C401.635 124.06 400.54 125.418 399.746 126.961C398.977 128.484 398.507 130.09 398.337 131.778C398.166 133.467 398.315 135.138 398.784 136.792C399.277 138.425 400.11 139.94 401.282 141.337C402.434 142.71 403.771 143.781 405.294 144.55C406.841 145.299 408.451 145.724 410.123 145.825C411.795 145.925 413.447 145.729 415.08 145.236C416.738 144.722 418.278 143.869 419.7 142.676C421.097 141.504 422.192 140.146 422.986 138.603C423.804 137.039 424.299 135.413 424.469 133.724C424.64 132.035 424.478 130.374 423.985 128.741C423.516 127.088 422.706 125.574 421.554 124.202C420.382 122.804 419.022 121.731 417.475 120.983C415.928 120.234 414.308 119.797 412.615 119.672C410.923 119.546 409.246 119.763 407.584 120.322C405.947 120.86 404.43 121.715 403.033 122.888Z" fill="black"/>
<path d="M430.291 192.985C429.703 192.746 429.027 192.336 428.264 191.755C427.53 191.159 426.78 190.464 426.016 189.668C425.266 188.901 424.551 188.062 423.871 187.151C423.206 186.269 422.656 185.4 422.22 184.545C420.956 182.064 420.201 179.63 419.954 177.242C419.721 174.882 419.926 172.641 420.568 170.518C421.225 168.424 422.284 166.52 423.745 164.805C425.22 163.12 427.042 161.725 429.209 160.621C431.775 159.313 434.28 158.557 436.726 158.353C439.215 158.162 441.528 158.438 443.666 159.18C445.847 159.936 447.781 161.088 449.467 162.635C451.182 164.168 452.584 166.003 453.673 168.142C454.589 169.938 455.225 171.715 455.582 173.472C455.938 175.23 456.087 176.86 456.027 178.364L451.501 178.892C451.553 178.147 451.503 177.274 451.352 176.274C451.216 175.302 451.008 174.33 450.729 173.359C450.478 172.373 450.157 171.496 449.765 170.726C448.835 168.901 447.707 167.393 446.381 166.201C445.084 164.994 443.639 164.132 442.047 163.615C440.483 163.083 438.814 162.909 437.041 163.094C435.297 163.265 433.512 163.815 431.687 164.745C430.005 165.602 428.61 166.672 427.504 167.954C426.397 169.236 425.6 170.666 425.111 172.244C424.65 173.807 424.505 175.462 424.676 177.206C424.89 178.965 425.447 180.728 426.348 182.496C426.885 183.551 427.515 184.541 428.238 185.465C428.989 186.376 429.753 187.1 430.53 187.638L436.689 184.5L433.551 178.341L437.528 176.314L442.78 186.622L430.291 192.985Z" fill="black"/>
<path d="M149.579 405.439C149.063 404.213 148.41 402.975 147.619 401.727C146.828 400.479 145.918 399.423 144.889 398.559C143.467 397.366 142.049 396.74 140.636 396.682C139.247 396.645 138.09 397.177 137.164 398.28C136.465 399.114 136.138 400.051 136.184 401.092C136.25 402.108 136.549 403.195 137.082 404.352C137.615 405.509 138.205 406.673 138.853 407.843C139.419 408.861 139.942 409.905 140.422 410.976C140.901 412.047 141.213 413.144 141.357 414.268C141.525 415.411 141.433 416.566 141.081 417.733C140.753 418.92 140.054 420.151 138.985 421.426C137.812 422.823 136.387 423.799 134.71 424.355C133.057 424.931 131.303 425.005 129.448 424.577C127.594 424.148 125.772 423.183 123.982 421.682C122.805 420.695 121.791 419.614 120.939 418.439C120.111 417.285 119.418 416.119 118.861 414.941C118.324 413.739 117.896 412.606 117.576 411.544L121.502 410.076C121.74 410.987 122.075 411.957 122.506 412.987C122.957 413.992 123.497 414.967 124.125 415.912C124.773 416.831 125.489 417.621 126.274 418.279C127.107 418.978 128.052 419.52 129.108 419.905C130.208 420.285 131.296 420.383 132.37 420.199C133.444 420.014 134.423 419.394 135.308 418.34C136.069 417.433 136.451 416.48 136.455 415.48C136.503 414.476 136.31 413.437 135.875 412.362C135.461 411.263 134.957 410.171 134.362 409.088C133.796 408.069 133.238 407.017 132.689 405.929C132.16 404.817 131.754 403.683 131.471 402.526C131.209 401.345 131.197 400.165 131.434 398.986C131.672 397.807 132.274 396.641 133.241 395.489C134.413 394.092 135.762 393.156 137.288 392.682C138.859 392.204 140.479 392.164 142.15 392.563C143.84 392.938 145.466 393.738 147.027 394.964C148.743 396.404 150.076 397.878 151.026 399.385C152 400.912 152.732 402.404 153.223 403.86L149.579 405.439Z" fill="black"/>
<path d="M175.125 415.237L196.776 423.117L195.249 427.312L186.499 424.127L176.156 452.543L171.781 450.951L182.124 422.535L173.599 419.432L175.125 415.237Z" fill="black"/>
<path d="M222.777 454.29C222.504 455.834 222.622 457.284 223.13 458.641C223.676 459.972 224.502 461.093 225.608 462.003C226.715 462.913 228.041 463.504 229.585 463.776C231.192 464.059 232.687 463.966 234.07 463.495C235.453 463.023 236.612 462.253 237.548 461.183C238.49 460.082 239.096 458.759 239.369 457.215L243.261 435.14L247.752 435.932L243.834 458.149C243.395 460.639 242.429 462.71 240.935 464.364C239.473 466.023 237.676 467.185 235.544 467.849C233.444 468.518 231.196 468.642 228.801 468.219C226.406 467.797 224.337 466.912 222.592 465.565C220.847 464.217 219.572 462.514 218.765 460.455C217.959 458.395 217.775 456.121 218.214 453.631L222.131 431.414L226.669 432.214L222.777 454.29Z" fill="black"/>
<path d="M285.129 467.718L279.103 433.542L288.415 431.9C291.787 431.305 294.747 431.319 297.293 431.942C299.872 432.56 302.036 433.592 303.786 435.038C305.535 436.484 306.924 438.189 307.953 440.152C309.007 442.078 309.715 444.066 310.076 446.114C310.532 448.698 310.484 451.095 309.931 453.305C309.41 455.509 308.489 457.474 307.169 459.202C305.849 460.929 304.234 462.367 302.325 463.516C300.441 464.628 298.365 465.384 296.096 465.785L285.129 467.718ZM288.939 462.514L294.423 461.547C296.313 461.213 297.997 460.624 299.472 459.779C300.979 458.928 302.222 457.865 303.199 456.587C304.207 455.305 304.906 453.833 305.296 452.172C305.68 450.48 305.697 448.641 305.347 446.656C304.974 444.544 304.303 442.762 303.331 441.308C302.355 439.823 301.173 438.651 299.787 437.79C298.4 436.93 296.904 436.365 295.296 436.096C293.684 435.796 292.042 435.793 290.372 436.087L284.463 437.129L288.939 462.514Z" fill="black"/>
<path d="M329.055 420.563L333.275 418.595L347.941 450.047L343.722 452.015L329.055 420.563Z" fill="black"/>
<path d="M363.422 423.428C361.88 421.59 360.773 419.574 360.101 417.38C359.434 415.141 359.201 412.872 359.402 410.572C359.583 408.249 360.184 406.053 361.205 403.984C362.231 401.871 363.687 400.022 365.575 398.438C367.438 396.875 369.487 395.782 371.722 395.16C373.96 394.493 376.24 394.272 378.56 394.498C380.883 394.678 383.09 395.291 385.179 396.337C387.247 397.359 389.053 398.789 390.595 400.627C392.179 402.515 393.305 404.578 393.972 406.817C394.639 409.056 394.86 411.335 394.634 413.655C394.413 415.93 393.779 418.111 392.733 420.2C391.691 422.244 390.239 424.048 388.376 425.611C386.488 427.195 384.435 428.333 382.217 429.025C380.023 429.696 377.787 429.943 375.508 429.767C373.229 429.59 371.046 428.979 368.957 427.933C366.892 426.866 365.047 425.365 363.422 423.428ZM367.13 420.38C368.303 421.777 369.66 422.872 371.204 423.666C372.726 424.435 374.332 424.905 376.021 425.076C377.709 425.246 379.38 425.097 381.034 424.628C382.667 424.135 384.182 423.302 385.58 422.13C386.952 420.978 388.023 419.641 388.793 418.118C389.541 416.571 389.966 414.961 390.067 413.289C390.168 411.617 389.972 409.965 389.478 408.332C388.965 406.674 388.111 405.134 386.918 403.713C385.746 402.315 384.388 401.22 382.845 400.426C381.281 399.608 379.655 399.114 377.966 398.943C376.278 398.773 374.617 398.934 372.984 399.427C371.33 399.896 369.817 400.706 368.444 401.858C367.047 403.03 365.974 404.39 365.225 405.937C364.476 407.484 364.039 409.104 363.914 410.797C363.789 412.489 364.005 414.167 364.564 415.828C365.102 417.465 365.958 418.982 367.13 420.38Z" fill="black"/>
<path d="M216.4 297.4L211 296.2L206.8 291.4L212.2 290.2L217 289L221.2 287.8L226 286.6L230.2 285.4L238 282.4L245.2 280L252.4 277.6L257.2 275.8L264.4 273.4L271 271L274.6 269.8L278.2 268.6L284.8 266.2L291.4 264.4L301 262.6L307.6 261.4H315.4H322.6L328.6 262L336.5 264L343 266.2L348.4 268L352 269.5L353 270.5L353.5 272L353 273.5L351.4 276.4L349 280.6L346 285.4L342.4 289.6L338.2 293.8L334.6 297.4L331 301L328 305.2L325.6 310.6L323.2 316L322 320.2L320.8 325L319.6 332.2L317.8 338.8L316 343L313.6 347.8L311.2 352L308.2 356.8L305.8 360.4L302.8 364.6L299.8 369.4L298 370.6H288.4H280L271 370L265 369.4H251.2H245.2L242.2 368.8L237.4 367.6L232.6 365.2L227.8 362.8L224.2 361L218.2 357.4L214 355L217.6 352.6L220.6 350.8L223.6 347.8L227.2 343.6L230.8 338.8L233.2 333.4L235 327.4V322V316.6L233.2 311.8L230.8 308.2L228.4 304.6L226 301.6L220.6 299.2L216.4 297.4Z" fill="#F7EED7"/>
<path d="M140.8 334.6L136 340.6L133.6 337.6L131.8 335.2L129.4 331.6L127 328L126.5 326L127 323.8L128.8 320.2L131.2 315.4L134.2 308.8L137.8 301.6L141.4 295L146.2 287.2L151 279.4L155.8 272.8L159.4 268L164.2 261.4L169.6 254.8L173.2 250L178 244.6L181 240.4L183.4 234.4L184.6 228.4L185.2 224.8L185.8 223H187.6L188.8 226.6L190.6 230.2L194.2 233.8L197.2 236.2L201.4 237.4H206.2L208 236.2V234.4L207.4 232.6L205.6 231.4L202.6 229L199.6 225.4L196.6 221.8L263.2 192.4L264.4 197.2L265.6 200.2L266.8 203.2L267.841 204.4H269.8L273.4 205L281.8 205.6L288.4 206.2L294.4 206.8L299.2 207.4L304 208L308.8 209.2L312.4 210.4L315.4 211.6L319.6 213.4L323.2 215.2L326.2 217L329 217L334 217.6L339.4 218.8L343.5 220L347.8 221.8L352 224L356.2 226.6L359.8 230.2L363.4 235L364.6 238L366.4 241.6L367.6 245.8L368.8 250L369.4 253V261.4V266.8L367.6 272.2L365.2 275.8L363 279.5L361.6 281.8L361 284.2L359.2 285.4L358 284.8V283.6L359.2 279.4L360 277.5L361 275.2L364 270.4L364.6 268L364 263.8L362.8 261.4L357.4 258.4L349.6 255.4L342.4 253L331.6 250.6L322 249.4H308.2L299.2 250.6L288.4 253.6L277 257.2L268.6 259.6L257.2 263.8L247 268L238 271L230.2 274L222.4 276.4L214 279.4L206.8 281.2L201.4 282.4L198.4 283H189.4L187 282.4L183.4 280.6L181.6 278.2L180.4 275.2L179.8 273.4L178.6 272.8H176.8L174.4 273.4L173.2 275.2L172.6 277L173.2 282.4L174.4 285.4L176.8 287.8L179.2 289.6L182.8 291.4L187 292.6H197.2L200.8 292L206.8 291.4L211 296.2H200.8L194.8 297.4L188.2 299.2L181.6 301.6L175.6 304.6L169.6 308.2L163.6 311.8L158.8 315.4L153.4 320.2L149.2 324.4L145 329.8L140.8 334.6Z" fill="#2BCCAB"/>
<path d="M183.4 346.6L184 347.8L186.4 349.6L190.6 351.4L197.2 354.4L204.4 358.6L212.2 364L221.2 370L227.2 374.2L231.4 377.2L234.4 380.2L236.8 379L240 378.5H245L250 379L255.4 380.2L260.2 382.6L263.8 385.6L268 389.2L270.4 392.8L271 395.2L269.8 397H266.8L263.8 395.8L260.2 393.4L256.6 391.6L254.2 390.4L251.8 389.2H242.8L240.4 389.8L237.4 391L234.4 393.4L238 394L241 395.2L244.6 396.4L248.2 398.8L251.8 402.4L254 405L255.5 408.5L255.4 411.4L254.2 412L252 411.5L250 410.5L245.8 408.4L241.6 406.6L237.4 405.4L229.6 402.4L223 400L215.8 396.4L207.4 392.8L200.2 389.8L192.4 386.2L185.2 382.6L178 379L172 375.4L164.8 370L157 364L151 359.2L145.6 354.4L142 350.2V348.4L143.8 346L146.2 342.4L149.2 338.2L153.4 333.4L157.6 329.2L161.2 325.6L166.6 321.4L173.2 316.6L178.6 313L185.2 310L191.8 307L198.4 305.2L205 304.6L212.2 305.2L217 307.6L220.6 310.6L223.6 314.8L224.8 319V324.4L223.6 328.6L221.8 332.8L219.4 336.4L216.4 339.4L212.8 343L208.6 346.6L206.2 348.4H204.4L201.4 347.2L198.4 346L193.6 344.8H185.8H184L183.4 346.6Z" fill="#2BCCAB"/>
<path d="M323.2 347.8L320.8 353.2L325 361.6L325.6 363.4L332 363.5L337 364.6L341.2 366.4L344.5 368.5L345.4 369.4L345.5 370.5L345.168 371.2L344 371.5H338L335.2 371.2L330 371L325.6 371.2L319 373L313 376L308.2 380.2L307 382V385.6L307.6 386.8H311.8L312.4 386.2L317.8 383.2L322.6 380.8H329.8L331.6 382L327.4 386.2L324.4 389.8L322.6 393.4V396.4L324.4 397.6H326.8L329.8 394.6L334.6 390.4L341.2 385.6L346.6 380.8L353.2 376.6L358.6 373L364.6 369.4L368.2 366.4V364.6L364.6 356.8L360.4 347.8L355.6 340L351.4 332.2L346 324.4L342.4 319L338.5 312.5L337.5 312H337L336 312.5L335 313.5L333.4 317.8L331.5 322.5L329.8 328.6L328 335.2L326.2 341.8L323.2 347.8Z" fill="#2BCCAB"/>
<path d="M327.4 206.8L311.2 200.2V196L311.8 193L312.4 190.6L313.6 187.6L315.4 184.6L318.4 181L321.5 177.5L325 175L328 173.2L332.2 171.4L336.4 170.8H344.2L349 172L353.2 173.8L356.8 175.6L359.8 178.6L362.8 182.2L364.6 185.2L366.4 188.8L367.6 191.2L368.2 194.8V202L367.6 205.6L367 208.6L365.8 211L363.4 214.6L361 217.6L355.6 213.4L357.4 211L358.6 208.6L359.8 205.6L360.4 203.8V197.2L359.2 194.2L358 191.8L356.2 189.4L352.6 185.8L350.2 184L347.2 182.8H341.2L339.4 183.4L335.2 185.2L331.6 188.2L327.4 193L326.2 197.2V202.6L327.4 206.8Z" fill="#2BCCAB"/>
<circle cx="229.6" cy="207.4" r="37.2" fill="#2BCCAB"/>
<circle cx="227.4" cy="206.4" r="26.4" fill="#030227"/>
<circle cx="235.6" cy="201.4" r="8.4" fill="white"/>
<circle cx="343.5" cy="199.5" r="17.5" fill="#030227"/>
<circle cx="349" cy="198.4" r="5.4" fill="white"/>
</svg>
